:SAMPLES-PER-SECOND 30
:FULLY-SPECIFIED
:DEGREES
1454
root  62.1276 37.5005 0.196622 -63.9176 -84.3056 58.9699
RightUpLeg  -20.8956 -7.54894 -2.82756
RightLeg  9.05267 -1.20989 0.511811
RightFoot  3.61676 -0.0363685 0.336849
RightToes  9.54606e-009 0 -3.6325e-017
Spine  4.82652 -2.71776 -4.56918
Spine1  7.62924 -3.6479 2.7442
HEad  -5.01978 -14.9667 -5.72885
LeftShoulder1  -0.445899 4.71809 -30.6144
LeftArm  12.2782 -15.0401 -44.5243
LeftForeArm  12.4182 -24.1273 -4.51889
LeftHand  0.00791438 7.6863 2.38399
RightShoulder  -1.18766 -6.74607 30.1281
RightArm  9.98684 -12.6814 39.05
RightForeArm  20.958 6.76093 4.8953
RightHand  -0.0232648 3.47053 -0.537674
LeftUpLeg  19.063 1.91316 -10.2884
LeftLeg  9.13593 5.4367 4.51382
LeftFoot  -20.2412 0.0697557 -0.651787
LeftToes  -8.26734e-010 9.74065e-011 1.64617e-011
1455
root  60.6157 37.4768 0.208335 -53.5201 -85.3581 48.3873
RightUpLeg  -20.8395 -7.3512 -1.37639
RightLeg  12.8197 -0.239235 0.237235
RightFoot  7.8492 0.151602 -0.629816
RightToes  9.54606e-009 0 -3.6325e-017
Spine  4.84391 -3.13217 -2.5136
Spine1  7.15411 -4.07163 2.90723
HEad  -4.51744 -14.2355 -6.28883
LeftShoulder1  -0.5242 4.91047 -31.1174
LeftArm  14.3181 -12.8357 -44.7952
LeftForeArm  12.264 -22.1932 -4.54609
LeftHand  -0.00190515 8.35388 1.59403
RightShoulder  -1.19588 -6.74342 30.4023
RightArm  9.94115 -11.9066 38.544
RightForeArm  20.6407 7.63212 4.85082
RightHand  0.0247082 3.18275 0.0964348
LeftUpLeg  21.8272 3.13319 -7.55544
LeftLeg  8.86623 2.67349 3.88549
LeftFoot  -19.8369 -0.0914211 -2.81892
LeftToes  -8.26734e-010 9.74065e-011 1.64617e-011
1456
root  59.0749 37.5208 0.232896 -60.5109 -87.1851 55.2615
RightUpLeg  -20.9531 -5.58932 0.242611
RightLeg  17.8714 -0.153655 -0.304786
RightFoot  5.44308 0.387547 -2.3739
RightToes  9.54606e-009 0 -3.6325e-017
Spine  5.38513 -2.84908 -0.0160974
Spine1  5.86943 -3.61646 2.44054
HEad  -4.02379 -13.5507 -6.93134
LeftShoulder1  -0.553863 4.96611 -31.7355
LeftArm  14.3232 -9.81339 -44.9108
LeftForeArm  14.202 -19.8347 -5.49214
LeftHand  -0.0012546 8.72557 1.5128
RightShoulder  -1.22368 -6.82658 30.3221
RightArm  10.1726 -10.7745 38.4532
RightForeArm  19.8597 8.75026 4.97465
RightHand  0.0195604 2.86991 0.0761295
LeftUpLeg  23.9494 4.49515 -5.25726
LeftLeg  9.5732 0.959489 3.29565
LeftFoot  -17.8735 -0.211281 -5.60325
LeftToes  -8.26734e-010 9.74065e-011 1.64617e-011
1457
root  57.5596 37.7561 0.159779 -82.9193 -88.0761 77.7596
RightUpLeg  -19.4671 -4.26353 0.834599
RightLeg  19.5855 -0.320396 -0.335607
RightFoot  3.73651 0.555437 -3.99649
RightToes  9.54606e-009 0 -3.6325e-017
Spine  5.56821 -2.51421 0.700559
Spine1  4.85089 -3.35121 2.62395
HEad  -3.3638 -12.6074 -7.24934
LeftShoulder1  -0.567377 4.98218 -32.2288
LeftArm  12.1324 -6.01362 -44.6357
LeftForeArm  18.7885 -17.4509 -6.78403
LeftHand  -0.0215546 8.46245 0.939375
RightShoulder  -1.23561 -6.8815 30.0764
RightArm  9.83857 -8.62355 39.4522
RightForeArm  20.0514 8.33975 4.99176
RightHand  0.0444477 2.0144 0.561836
LeftUpLeg  24.7262 5.14174 -3.70439
LeftLeg  11.7766 -0.895365 2.22964
LeftFoot  -13.3974 -0.0800236 -10.0264
LeftToes  -8.26734e-010 9.74065e-011 1.64617e-011
1458
root  56.0873 38.1793 -0.0145031 -92.7244 -87.5972 87.8554
RightUpLeg  -16.9097 -3.85746 0.49159
RightLeg  18.9908 -0.49439 -0.397628
RightFoot  2.03979 0.571288 -4.7376
RightToes  9.54606e-009 0 -3.6325e-017
Spine  5.19665 -2.14857 -0.489125
Spine1  4.2657 -3.34919 3.24464
HEad  -2.86272 -12.1816 -7.09319
LeftShoulder1  -0.6202 5.11479 -32.3494
LeftArm  9.91348 -2.8686 -44.6744
LeftForeArm  23.7178 -14.831 -8.26993
LeftHand  -0.0447205 8.43633 -0.122081
RightShoulder  -1.1883 -6.78211 29.7395
RightArm  9.22167 -6.99012 40.9227
RightForeArm  18.6759 9.35767 4.88393
RightHand  0.00108523 3.8676 -0.245713
LeftUpLeg  22.9607 4.67027 -2.94371
LeftLeg  16.8595 -2.55937 0.776616
LeftFoot  -5.57111 0.80811 -14.9617
LeftToes  -8.26734e-010 9.74065e-011 1.64617e-011
1459
root  54.7299 38.6663 -0.215522 -91.8363 -86.8836 87.4364
RightUpLeg  -13.843 -3.8237 -0.0825396
RightLeg  16.6131 -0.548516 -0.378973
RightFoot  1.22361 0.558196 -4.9861
RightToes  9.54606e-009 0 -3.6325e-017
Spine  5.25583 -1.53595 -1.38041
Spine1  2.39851 -2.87288 2.49644
HEad  -1.93636 -12.9922 -6.71729
LeftShoulder1  -0.603465 5.06293 -32.5539
LeftArm  7.15964 0.109367 -44.4696
LeftForeArm  30.1714 -12.0042 -9.60712
LeftHand  -0.0513667 6.99015 -0.909204
RightShoulder  -1.20801 -6.82013 29.9226
RightArm  9.74665 -6.132 41.5883
RightForeArm  17.3654 11.6678 4.73442
RightHand  0.0366708 2.84938 0.307732
LeftUpLeg  17.8476 3.77126 -2.38077
LeftLeg  25.9655 -3.1318 -1.22757
LeftFoot  5.93469 2.28321 -15.7879
LeftToes  -8.26734e-010 9.74065e-011 1.64617e-011
1460
root  53.6613 39.068 -0.438196 -83.8177 -86.152 79.2631
RightUpLeg  -10.411 -3.85084 -0.713731
RightLeg  13.924 -0.994134 -0.482365
RightFoot  0.804035 0.550537 -5.11578
RightToes  9.54606e-009 0 -3.6325e-017
Spine  5.01585 -1.07143 -1.92352
Spine1  2.79891 -2.42771 1.12832
HEad  -1.93489 -14.5592 -5.97449
LeftShoulder1  -0.618615 5.08776 -32.9009
LeftArm  5.41929 1.91281 -44.3034
LeftForeArm  34.3842 -10.2079 -10.2605
LeftHand  -0.0802472 8.96996 -0.949487
RightShoulder  -1.15803 -6.67673 29.9687
RightArm  12.109 -4.75636 42.6155
RightForeArm  13.467 14.9779 4.72639
RightHand  -0.0337464 3.7341 -0.694339
LeftUpLeg  11.668 4.03141 -1.60422
LeftLeg  35.9111 -3.99315 -2.67527
LeftFoot  16.7125 2.88725 -11.7958
LeftToes  -8.26734e-010 9.74065e-011 1.64617e-011
